<svg width="1027.35" height="783.97" xmlns="http://www.w3.org/2000/svg" data-name="Layer 1">

 <title>Calculator</title>
 <g>
  <title>Layer 1</title>
  <path id="svg_17" fill="#000000" d="m314.22,212.98s27.72,-36.12 42.84,-33.32c0,0 -16.8,32.2 -42.84,37l0,-3.68z"/>
  <path id="svg_18" fill="#000000" d="m328.2,168.48s24.5,-27.7 37.73,-27.63c0,0 -19.34,37 -38.74,36.66l1.01,-9.03z"/>
  <path id="svg_19" fill="#000000" d="m336.48,138.82l23.66,-57.69s1.19,52.15 -26.67,68.39l3.01,-10.7z"/>
  <path id="svg_32" fill="#000000" d="m330.15,172.1s-0.09,-37 -10.06,-45.67c0,0 -9.93,40.53 4.85,53.12l5.21,-7.45z"/>
  <ellipse id="svg_44" opacity="0.1" fill="#000000" ry="4.55" rx="26.93" cy="779.42" cx="699.95"/>
  <rect id="svg_48" fill="#e5e5e5" ry="9.8" height="641.38" width="431.35" y="79.20154" x="302.74"/>
  <rect id="svg_49" opacity="0.1" ry="29.21" rx="29.21" height="126.09" width="357.73" y="134.87" x="342.22"/>
  <rect id="svg_50" fill="#e6e8ec" ry="10.2" rx="10.2" height="121.95" width="352.31" y="137.33" x="344.52"/>
  <rect fill="#000000" id="svg_51" opacity="0.1" ry="10.79" rx="10.79" height="79.04" width="71.14" y="313.48" x="354.68"/>
  <rect id="svg_52" opacity="0.1" ry="10.79" rx="10.79" height="79.04" width="71.14" y="313.48" x="441.63"/>
  <rect id="svg_53" opacity="0.1" ry="10.79" rx="10.79" height="79.04" width="71.14" y="313.48" x="527.04154"/>
  <rect id="svg_54" opacity="0.1" ry="28.84" rx="28.84" height="79.04" width="71.14" y="315.16" x="615.53"/>
  <rect id="svg_55" fill="#000000" ry="10.79" rx="10.79" height="79.04" width="71.14" y="313.48" x="615.53"/>
  <rect id="svg_56" opacity="0.1" ry="10.79" rx="10.79" height="79.04" width="71.14" y="400.43" x="354.68"/>
  <rect id="svg_57" opacity="0.1" ry="10.79" rx="10.79" height="79.04" width="71.14" y="400.43" x="441.63"/>
  <rect id="svg_58" opacity="0.1" ry="10.79" rx="10.79" height="79.04" width="71.14" y="400.43" x="528.58"/>
  <rect id="svg_59" opacity="0.1" ry="10.79" rx="10.79" height="79.04" width="71.14" y="496.41" x="354.68"/>
  <rect id="svg_60" opacity="0.1" ry="10.79" rx="10.79" height="79.04" width="71.14" y="496.41" x="441.63"/>
  <rect id="svg_61" opacity="0.1" ry="10.79" rx="10.79" height="79.04" width="71.14" y="496.41" x="528.58"/>
  <rect id="svg_62" opacity="0.1" ry="10.79" rx="10.79" height="79.04" width="71.14" y="592.39" x="528.58"/>
  <rect id="svg_63" opacity="0.1" ry="28.84" rx="28.84" height="79.04" width="71.14" y="402.11" x="615.53"/>
  <rect id="svg_64" fill="#000000" ry="11.3" rx="11.3" height="79.04" width="71.14" y="400.43" x="615.53"/>
  <rect id="svg_65" opacity="0.2" ry="11.3" rx="11.3" height="79.04" width="71.14" y="400.43" x="615.53"/>
  <rect id="svg_66" opacity="0.1" ry="10.04" rx="10.04" height="79.04" width="158.09" y="592.39" x="354.68"/>
  <rect id="svg_67" opacity="0.1" ry="11.66" rx="11.66" height="175.03" width="77.91" y="496.41" x="608.75"/>
  <rect id="svg_68" fill="#000000" height="3.37" width="31.14" y="237.98" x="649.87"/>
  <rect id="svg_69" fill="#000000" height="3.37" width="31.14" y="237.98" x="604.28"/>
  <rect id="svg_70" fill="#000000" height="3.37" width="31.14" y="237.98" x="558.68"/>
  <rect id="svg_71" fill="#000000" height="3.37" width="31.14" y="237.98" x="513.09"/>
  <path id="svg_90" opacity="0.1" d="m818.68,634.98s5.69,0.45 5.74,2"/>
  <path id="svg_95" opacity="0.1" d="m697.29,354.15l-4.83,9.37a19,19 0 0 1 -4.49,-0.94l-0.42,-0.5c2,0.76 8.61,-11.79 8.61,-11.79l0.21,0.17c0.58,2.19 0.92,3.69 0.92,3.69z"/>
  <path id="svg_130" opacity="0.1" d="m766.24,691.91c0.25,0 10.28,-2.82 12.44,-7.65"/>
  <path id="svg_132" opacity="0.1" d="m783.12,642.98s1.71,3.77 4.23,2.56"/>
  <path id="svg_139" d="m475.80796,187.11502c-14.01967,0 -25.38461,11.3648 -25.38461,25.38461c0,14.01952 11.36494,25.38461 25.38461,25.38461c14.01983,0 25.38461,-11.3651 25.38461,-25.38461c0,-14.01981 -11.36478,-25.38461 -25.38461,-25.38461zm2.192,39.14727l0,3.57549l-3.41977,0l0,-3.5352c-5.61177,-0.76852 -8.07093,-5.3794 -8.07093,-5.3794l3.4967,-2.92189c0,0 2.22865,3.88264 6.26323,3.88264c2.22847,0 3.91926,-1.19291 3.91926,-3.22968c0,-4.76609 -12.83554,-4.18815 -12.83554,-13.02745c0,-3.84268 3.03549,-6.61099 7.22546,-7.26395l0,-3.57513l3.41991,0l0,3.57315c2.92024,0.38443 6.37847,1.92149 6.37847,5.22751l0,2.5361l-4.53425,0l0,-1.22954c0,-1.26792 -1.61553,-2.11342 -3.42141,-2.11342c-2.30543,0 -3.99623,1.15267 -3.99623,2.76666c0,4.87974 12.83553,3.68877 12.83553,12.95085c0.00183,3.80566 -2.8416,7.11033 -7.26043,7.76328l0,0z" fill="#000000"/>
 </g>
</svg>