<svg width="836.00447" height="437.46152" xmlns="http://www.w3.org/2000/svg" data-name="Layer 1">

 <g>
  <title>Layer 1</title>
  <path fill="#3f3d56" d="m507.65947,191.56951a7.59994,7.59994 0 0 0 -6.95,-4.65l-138.725,0a7.524,7.524 0 0 0 -7.52,7.52l0,175.5a7.524,7.524 0 0 0 7.52,7.52l138.73,0a7.53,7.53 0 0 0 7.52,-7.52l0,-175.5a7.38549,7.38549 0 0 0 -0.57,-2.87l-0.005,0zm-1.1,178.37a5.857,5.857 0 0 1 -5.85,5.85l-138.725,0a5.851,5.851 0 0 1 -5.85,-5.849l0,-175.5a5.858,5.858 0 0 1 5.85,-5.85l138.73,0a5.87906,5.87906 0 0 1 5.43,3.68a6.48627,6.48627 0 0 1 0.22,0.66a5.80051,5.80051 0 0 1 0.2,1.51l-0.005,175.499z" data-name="Path 336" id="f152a38b-6c6f-456c-96ce-4c801960ccf2"/>
  <path fill="#3f3d56" d="m478.70946,228.35451l-41.78595,0a3.343,3.343 0 1 1 0,-6.686l41.78595,0a3.343,3.343 0 1 1 0,6.686z" data-name="Path 337" id="fabca9b7-6499-499c-b0ba-e512eedfa0e6"/>
  <path fill="#3f3d56" d="m478.70946,245.90453l-41.78595,0a3.343,3.343 0 1 1 0,-6.686l41.78595,0a3.343,3.343 0 1 1 0,6.686z" data-name="Path 338" id="b1b2178d-f6c7-4a19-857a-cc93cc70df69"/>
  <path fill="#000000" d="m415.48348,255.89751l-30.537,0a3.765,3.765 0 0 1 -3.761,-3.761l0,-36.036a3.765,3.765 0 0 1 3.761,-3.761l30.537,0a3.765,3.765 0 0 1 3.761,3.761l0,36.036a3.765,3.765 0 0 1 -3.761,3.761z" data-name="Path 339" id="bd84b5e9-e9c5-4886-bcfd-3c769a5bd20c"/>
  <path fill="#ccc" d="m478.41948,281.84053l-94.436,0a3.343,3.343 0 0 1 0,-6.686l94.436,0a3.343,3.343 0 1 1 0,6.686z" data-name="Path 340" id="ad20b6ae-6256-4ad3-9ba5-bff6ef303c78"/>
  <path fill="#ccc" d="m478.41948,299.39052l-94.436,0a3.343,3.343 0 0 1 0,-6.686l94.436,0a3.343,3.343 0 1 1 0,6.686z" data-name="Path 341" id="f5b31b5a-d389-4394-a0c3-430493f21651"/>
  <path fill="#ccc" d="m478.41948,316.94051l-94.436,0a3.343,3.343 0 0 1 0,-6.686l94.436,0a3.343,3.343 0 1 1 0,6.686z" data-name="Path 342" id="e6b00d4f-f233-434b-82e7-f520ed55a592"/>
  <path fill="#ccc" d="m478.41948,334.49053l-94.436,0a3.343,3.343 0 0 1 0,-6.686l94.436,0a3.343,3.343 0 1 1 0,6.686z" data-name="Path 343" id="f83e6214-6629-4e95-ad35-3c9b0c78a3d6"/>
  <path fill="#ccc" d="m478.41948,352.04052l-94.436,0a3.343,3.343 0 0 1 0,-6.686l94.436,0a3.343,3.343 0 1 1 0,6.686z" data-name="Path 344" id="b83f14e7-a754-4235-a578-aebf681d4a1c"/>
  <path fill="#3f3d56" d="m640.00446,437.46152l195,0a1,1 0 0 0 0,-2l-195,0a1,1 0 0 0 0,2z" data-name="Path 349" id="a38c097c-1c01-4356-80b1-56a89c2c58fa"/>
  <path fill="#fff" d="m430.4995,124.67951a3.346,3.346 0 0 1 -2.013,-0.669l-0.036,-0.027l-7.582,-5.8a3.36939,3.36939 0 1 1 4.1,-5.348l4.911,3.766l11.605,-15.14a3.368,3.368 0 0 1 4.722,-0.62372l0.001,0.00074l-0.072,0.1l0.074,-0.1a3.372,3.372 0 0 1 0.623,4.723l-13.65,17.8a3.37,3.37 0 0 1 -2.68,1.314l-0.003,0.00398z" data-name="Path 395" id="b4906b3b-71df-4c7e-84d8-52e6769e6d26"/>
  <path fill="#fff" d="m219.12949,84.11153a2.268,2.268 0 0 1 -1.364,-0.453l-0.024,-0.018l-5.138,-3.934a2.283,2.283 0 0 1 2.776,-3.624l3.328,2.552l7.864,-10.256a2.282,2.282 0 0 1 3.19946,-0.42242l0.00055,0.00043l-0.049,0.066l0.05,-0.065a2.285,2.285 0 0 1 0.422,3.2l-9.25,12.064a2.283,2.283 0 0 1 -1.816,0.891l0.00099,-0.00101z" data-name="Path 408" id="a587243e-22a7-4e92-b127-7238b8715868"/>
  <path fill="#ccc" d="m282.73148,127.03254a5.982,5.982 0 0 0 -5.468,-3.659l-109.161,0a5.92,5.92 0 0 0 -5.917,5.917l0,138.093a5.92,5.92 0 0 0 5.917,5.917l109.161,0a5.925,5.925 0 0 0 5.917,-5.917l0,-138.093a5.81028,5.81028 0 0 0 -0.449,-2.258zm-0.865,140.352a4.609,4.609 0 0 1 -4.6,4.6l-109.164,0a4.6,4.6 0 0 1 -4.6,-4.6l0,0l0,-138.094a4.609,4.609 0 0 1 4.6,-4.6l109.161,0a4.626,4.626 0 0 1 4.273,2.9a5.10768,5.10768 0 0 1 0.173,0.519a4.5588,4.5588 0 0 1 0.158,1.188l-0.001,138.087z" data-name="Path 410" id="b24c2fd4-5735-4a8b-b246-c12b52e11f5f"/>
  <path fill="#ccc" d="m259.9485,155.97753l-32.88,0a2.63049,2.63049 0 0 1 0,-5.261l32.879,0a2.6305,2.6305 0 0 1 0,5.261l0.001,0z" data-name="Path 411" id="f030a160-4767-48dc-a1cd-6e8d6a87c559"/>
  <path fill="#ccc" d="m259.9485,169.78751l-32.88,0a2.6305,2.6305 0 0 1 0,-5.261l32.879,0a2.6305,2.6305 0 0 1 0,5.261l0.001,0z" data-name="Path 412" id="f0576b91-fb67-46c0-9bc8-b0d78fa4e393"/>
  <path fill="#ccc" d="m210.19749,177.65052l-24.028,0a2.962,2.962 0 0 1 -2.959,-2.959l0,-28.355a2.962,2.962 0 0 1 2.959,-2.959l24.028,0a2.963,2.963 0 0 1 2.959,2.959l0,28.355a2.962,2.962 0 0 1 -2.959,2.959z" data-name="Path 413" id="bb47cdff-cafb-4bb6-bfa7-d7f244c106f8"/>
  <path fill="#ccc" d="m259.71949,198.06352l-74.307,0a2.6305,2.6305 0 0 1 0,-5.261l74.307,0a2.63049,2.63049 0 0 1 0,5.261z" data-name="Path 414" id="b9c4730d-541e-403a-bfc4-7f597a133cff"/>
  <path fill="#ccc" d="m259.71949,211.87754l-74.307,0a2.6305,2.6305 0 0 1 0,-5.261l74.307,0a2.6305,2.6305 0 0 1 0,5.261z" data-name="Path 415" id="b0b4ad5b-1090-4149-ad9f-38443074182d"/>
  <path fill="#ccc" d="m259.71949,225.68252l-74.307,0a2.63049,2.63049 0 0 1 0,-5.261l74.307,0a2.63049,2.63049 0 0 1 0,5.261z" data-name="Path 416" id="a36ae105-a865-43f2-a38b-4a3728e49bb5"/>
  <path fill="#ccc" d="m259.71949,239.49551l-74.307,0a2.6305,2.6305 0 0 1 0,-5.261l74.307,0a2.63049,2.63049 0 0 1 0,5.261z" data-name="Path 417" id="bd69ee89-5535-4e79-aba4-c83b03de0083"/>
  <path fill="#ccc" d="m259.71949,253.30153l-74.307,0a2.63049,2.63049 0 0 1 0,-5.261l74.307,0a2.63049,2.63049 0 1 1 0,5.261z" data-name="Path 418" id="a075ca9b-1e14-49c6-b2ff-3fb4066a82fb"/>
  <path fill="#ccc" d="m144.79148,273.87749l153.434,0a0.787,0.787 0 0 0 0,-1.574l-153.434,0a0.787,0.787 0 1 0 -0.00894,1.574l0.00894,0z" data-name="Path 419" id="b99f005d-5535-4af5-95d9-44a7a4f0c0b8"/>
  <path fill="#fff" d="m639.12949,84.11153a2.268,2.268 0 0 1 -1.364,-0.453l-0.024,-0.018l-5.138,-3.934a2.283,2.283 0 0 1 2.776,-3.624l3.328,2.552l7.864,-10.256a2.282,2.282 0 0 1 3.19946,-0.42242l0.00055,0.00043l-0.049,0.066l0.05,-0.065a2.285,2.285 0 0 1 0.422,3.2l-9.25,12.064a2.283,2.283 0 0 1 -1.816,0.891l0.00099,-0.00101z" data-name="Path 408" id="a5ae1e6c-de0b-426c-a811-1990f7b7ccda"/>
  <path fill="#ccc" d="m702.73148,127.03254a5.982,5.982 0 0 0 -5.468,-3.659l-109.161,0a5.92,5.92 0 0 0 -5.917,5.917l0,138.093a5.92,5.92 0 0 0 5.917,5.917l109.161,0a5.925,5.925 0 0 0 5.917,-5.917l0,-138.093a5.81028,5.81028 0 0 0 -0.449,-2.258zm-0.865,140.352a4.609,4.609 0 0 1 -4.6,4.6l-109.164,0a4.6,4.6 0 0 1 -4.6,-4.6l0,0l0,-138.094a4.609,4.609 0 0 1 4.6,-4.6l109.161,0a4.626,4.626 0 0 1 4.273,2.9a5.10768,5.10768 0 0 1 0.173,0.519a4.5588,4.5588 0 0 1 0.158,1.188l-0.001,138.087z" data-name="Path 410" id="e481f25f-f0ef-423d-9e4a-b2d79b6febf5"/>
  <path fill="#ccc" d="m679.9485,155.97753l-32.88,0a2.63049,2.63049 0 0 1 0,-5.261l32.879,0a2.6305,2.6305 0 0 1 0,5.261l0.001,0z" data-name="Path 411" id="a5b052e7-0a6d-48d5-ba9e-291ff1ca3bfd"/>
  <path fill="#ccc" d="m679.9485,169.78751l-32.88,0a2.6305,2.6305 0 0 1 0,-5.261l32.879,0a2.6305,2.6305 0 0 1 0,5.261l0.001,0z" data-name="Path 412" id="bd247f09-cb3d-4df5-9c12-787ea9e72b07"/>
  <path fill="#ccc" d="m630.19749,177.65052l-24.028,0a2.962,2.962 0 0 1 -2.959,-2.959l0,-28.355a2.962,2.962 0 0 1 2.959,-2.959l24.028,0a2.963,2.963 0 0 1 2.959,2.959l0,28.355a2.962,2.962 0 0 1 -2.959,2.959z" data-name="Path 413" id="b3d7a89f-9ffc-4079-aa15-40ad611f9a98"/>
  <path fill="#ccc" d="m679.71949,198.06352l-74.307,0a2.6305,2.6305 0 0 1 0,-5.261l74.307,0a2.6305,2.6305 0 0 1 0,5.261z" data-name="Path 414" id="e1bf4aca-fc8d-43da-a727-289201e2eac7"/>
  <path fill="#ccc" d="m679.71949,211.87754l-74.307,0a2.63049,2.63049 0 0 1 0,-5.261l74.307,0a2.63049,2.63049 0 0 1 0,5.261z" data-name="Path 415" id="b286f981-abb8-47cd-9209-f09770ef33ad"/>
  <path fill="#ccc" d="m679.71949,225.68252l-74.307,0a2.63049,2.63049 0 0 1 0,-5.261l74.307,0a2.63049,2.63049 0 1 1 0,5.261z" data-name="Path 416" id="ad15bc08-a918-4115-a327-9a31c97a6753"/>
  <path fill="#ccc" d="m679.71949,239.49551l-74.307,0a2.6305,2.6305 0 0 1 0,-5.261l74.307,0a2.6305,2.6305 0 0 1 0,5.261z" data-name="Path 417" id="a508ff04-1989-4f94-915f-90cf16933556"/>
  <path fill="#ccc" d="m679.71949,253.30153l-74.307,0a2.63049,2.63049 0 1 1 0,-5.261l74.307,0a2.63049,2.63049 0 1 1 0,5.261z" data-name="Path 418" id="e65b0501-2d31-4d85-b27f-ea92835ed026"/>
  <path fill="#ccc" d="m564.79148,273.87749l153.434,0a0.787,0.787 0 0 0 0,-1.574l-153.434,0a0.787,0.787 0 1 0 -0.00894,1.574l0.00894,0z" data-name="Path 419" id="a3e956aa-8abe-48aa-ba4a-17518f20fda0"/>
  <path fill="#3f3d56" d="m333.00448,378.05886l195,0a1,1 0 0 0 0,-2l-195,0a1,1 0 0 0 0,2z" data-name="Path 420" id="b01c4841-6b77-41d3-9bc6-bba4643c130f"/>
  <path id="svg_2" d="m225.57269,74.02263c-9.66507,0 -17.49999,7.83482 -17.49999,17.49999c0,9.66497 7.83492,17.5 17.49999,17.5c9.66518,0 17.49999,-7.83503 17.49999,-17.5c0,-9.66517 -7.83481,-17.49999 -17.49999,-17.49999zm1.51115,26.98789l0,2.46492l-2.35757,0l0,-2.43715c-3.86872,-0.52981 -5.56405,-3.70853 -5.56405,-3.70853l2.4106,-2.01433c0,0 1.53642,2.67667 4.31783,2.67667c1.53629,0 2.70192,-0.82238 2.70192,-2.22652c0,-3.28572 -8.84874,-2.88728 -8.84874,-8.98105c0,-2.64912 2.09265,-4.55758 4.98119,-5.00772l0,-2.46467l2.35766,0l0,2.46331c2.0132,0.26502 4.39728,1.32466 4.39728,3.60381l0,1.74837l-3.12588,0l0,-0.84764c0,-0.8741 -1.11373,-1.45698 -2.3587,-1.45698c-1.58935,0 -2.75498,0.79464 -2.75498,1.90732c0,3.36407 8.84874,2.54302 8.84874,8.92824c0.00126,2.6236 -1.95898,4.90182 -5.00529,5.35196l0,0z" fill="#ccc"/>
  <path id="svg_3" d="m640.48269,73.04763c-9.66507,0 -17.5,7.83482 -17.5,17.5c0,9.66497 7.83492,17.5 17.5,17.5c9.66519,0 17.5,-7.83503 17.5,-17.5c0,-9.66517 -7.83481,-17.5 -17.5,-17.5zm1.51115,26.9879l0,2.46492l-2.35757,0l0,-2.43715c-3.86872,-0.52981 -5.56405,-3.70853 -5.56405,-3.70853l2.4106,-2.01433c0,0 1.53642,2.67667 4.31783,2.67667c1.5363,0 2.70192,-0.82238 2.70192,-2.22652c0,-3.28572 -8.84874,-2.88728 -8.84874,-8.98105c0,-2.64912 2.09265,-4.55758 4.98119,-5.00772l0,-2.46467l2.35767,0l0,2.46331c2.0132,0.26502 4.39728,1.32466 4.39728,3.60381l0,1.74837l-3.12588,0l0,-0.84764c0,-0.8741 -1.11373,-1.45698 -2.3587,-1.45698c-1.58935,0 -2.75498,0.79464 -2.75498,1.90732c0,3.36407 8.84874,2.54302 8.84874,8.92824c0.00126,2.6236 -1.95898,4.90182 -5.0053,5.35196l0,0z" fill="#ccc"/>
  <path id="svg_5" d="m430.50002,112c-16.29256,0 -29.5,13.20727 -29.5,29.5c0,16.29238 13.20745,29.50001 29.5,29.50001c16.29274,0 29.5,-13.20762 29.5,-29.50001c0,-16.29272 -13.20726,-29.5 -29.5,-29.5zm2.54737,45.49389l0,4.15515l-3.97419,0l0,-4.10834c-6.52155,-0.89312 -9.3794,-6.25152 -9.3794,-6.25152l4.06359,-3.39559c0,0 2.58996,4.5121 7.27863,4.5121c2.58976,0 4.55466,-1.3863 4.55466,-3.75328c0,-5.53878 -14.91645,-4.86714 -14.91645,-15.13948c0,-4.46566 3.52761,-7.68277 8.39686,-8.44159l0,-4.15474l3.97435,0l0,4.15244c3.39368,0.44675 7.41255,2.233 7.41255,6.075l0,2.94725l-5.26935,0l0,-1.42888c0,-1.47348 -1.87744,-2.45605 -3.9761,-2.45605c-2.67919,0 -4.64411,1.33954 -4.64411,3.21519c0,5.67086 14.91645,4.2868 14.91645,15.05046c0.00213,4.42264 -3.30228,8.26307 -8.4375,9.02188l0,0z" fill="#000000"/>
  <rect id="svg_6" height="110" width="250" y="350.26924" x="638.99777" fill="#ffffff"/>
 </g>
</svg>